<?xml version="1.0" encoding="utf-8"?>
<!-- Generator: Adobe Illustrator 16.0.3, SVG Export Plug-In . SVG Version: 6.00 Build 0)  -->
<!DOCTYPE svg PUBLIC "-//W3C//DTD SVG 1.1//EN" "http://www.w3.org/Graphics/SVG/1.1/DTD/svg11.dtd">
<svg version="1.1" xmlns="http://www.w3.org/2000/svg" xmlns:xlink="http://www.w3.org/1999/xlink" x="0px" y="0px" width="800px"
	 height="800px" viewBox="0 0 800 800" enable-background="new 0 0 800 800" xml:space="preserve">
<g id="Capa_1">
</g>
<g id="Capa_2">
	<g>
		<path fill="#E76624" d="M273.857,164.791c0,0,129.826,307.098,209.231,343.833c75.357,34.863-75.665,65.435-100.421,43.396
			c-53.578-47.692-162.328-227.719-207.715-285C119.296,196.779,260.432,181.366,273.857,164.791z"/>
		<path fill="#078AE2" d="M551.266,172.605c0,0,99.46,52.855,137.63,141.045c31.094,71.841-57.679,192.057-88.276,162.433
			c-51.534-49.894-212.596-236.468-249.065-299.8C306.718,98.423,537.843,189.18,551.266,172.605z"/>
		<path fill="#00B034" d="M506.317,164.791c0,0,147.859,156.03,173.082,239.806c12.14,40.317-100.596,122.168-111.153,115.997
			C506.32,484.397,352.113,271.162,312.792,209.56C243.289,100.677,496.822,176.534,506.317,164.791z"/>
		<path fill="#FBFF1A" d="M323.724,154.461c0,0,211.272,275.836,253.168,352.645c16.186,29.673-77.592,44.914-99.81,19.288
			C430.094,472.2,275.161,239.716,240.15,175.566C232.058,160.741,310.299,171.036,323.724,154.461z"/>
		<path fill="#E0164E" d="M162.017,212.455c0,0,187.054,258.354,232.708,332.99c20.964,34.273-131.681-15.36-131.681-15.36
			L93.689,291.804C93.689,291.804,148.592,229.03,162.017,212.455z"/>
		<path fill="#C41581" d="M130.293,249.714c-67.686,62.534,271.457,293.159,183.52,302.307
			c-34.065,3.543-192.314-74.542-223.833-131.239c-19.998-35.97,3.891-151.373,21.582-163.202
			C129.25,245.75,134.065,246.229,130.293,249.714z"/>
		
			<ellipse fill="none" stroke="#000000" stroke-width="16" stroke-miterlimit="10" cx="390.085" cy="354.018" rx="307.524" ry="204.341"/>
		<g>
			<path fill="#FFFFFF" stroke="#000000" stroke-width="4" stroke-linecap="round" stroke-miterlimit="26" d="M503.188,285.935
				l-27.179,92.777c18.481-0.243,30.503-0.966,36.058-2.175c9.062-1.81,17.277-5.647,24.642-11.506
				c7.374-5.859,13.535-13.984,18.49-24.373h7.062l-28.085,96.945h-7.249c1.208-6.283,1.813-11.296,1.813-15.04
				c0-7.489-1.541-13.471-4.62-17.939c-3.081-4.469-7.036-7.519-11.869-9.152c-4.833-1.629-18.117-2.687-39.864-3.17l-22.109,76.65
				l-4.35,15.403c-0.604,3.019-0.905,5.98-0.905,8.879c0,4.228,0.816,7.551,2.447,9.968c1.631,2.415,4.259,4.317,7.883,5.708
				c3.628,1.386,10.511,2.144,20.658,2.264l-1.995,6.706H351.338l1.994-6.706c11.838,0,20.475-2.205,25.911-6.615
				c5.438-4.409,10.33-14.042,14.68-28.9l43.851-150.402c4.59-15.825,7.007-25.971,7.247-30.441
				c-0.24-4.229-2.173-7.822-5.798-10.782c-3.623-2.96-11.053-4.681-22.287-5.164l1.809-6.705h200.777l-16.491,64.873h-6.705
				c-0.723-13.531-2.833-23.587-6.338-30.172c-3.504-6.583-9.274-11.717-17.303-15.402c-8.035-3.685-20.874-5.526-38.51-5.526
				H503.188z"/>
		</g>
		<g>
			<path fill="#FFFFFF" stroke="#000000" stroke-width="4" stroke-linecap="round" stroke-miterlimit="26" d="M341.48,206.757
				l-27.179,92.777c18.483-0.243,30.505-0.966,36.06-2.174c9.06-1.812,17.275-5.648,24.642-11.507
				c7.371-5.859,13.532-13.983,18.487-24.372h7.063l-28.084,96.946h-7.25c1.208-6.283,1.812-11.296,1.812-15.04
				c0-7.49-1.539-13.47-4.619-17.94c-3.08-4.471-7.038-7.52-11.87-9.152c-4.831-1.629-18.118-2.686-39.864-3.171l-22.11,76.651
				l-4.347,15.403c-0.605,3.019-0.906,5.979-0.906,8.879c0,4.229,0.816,7.55,2.446,9.966c1.632,2.414,4.261,4.318,7.883,5.708
				c3.626,1.389,10.51,2.144,20.658,2.266l-1.993,6.704H189.632l1.994-6.704c11.838,0,20.474-2.205,25.911-6.615
				c5.437-4.409,10.329-14.043,14.679-28.901l43.852-150.403c4.59-15.824,7.005-25.97,7.247-30.44
				c-0.242-4.229-2.173-7.822-5.798-10.783c-3.624-2.96-11.053-4.681-22.288-5.164l1.812-6.705h200.775l-16.491,64.872h-6.706
				c-0.723-13.531-2.833-23.587-6.337-30.172c-3.506-6.583-9.274-11.717-17.305-15.402c-8.033-3.685-20.871-5.526-38.508-5.526
				H341.48z"/>
		</g>
	</g>
</g>
<g id="Capa_3">
</g>
</svg>
